<svg width="100" height="100" viewBox="0 0 100 100" fill="none" xmlns="http://www.w3.org/2000/svg">
<path d="M43.3303 70.2299H56.6603V56.8999H43.3303V70.2299Z" fill="#231F20"/>
<path d="M45.3802 52.2599H54.6102V28.2H45.3802V52.2599Z" fill="#231F20"/>
<path d="M49.9999 14.82C56.9579 14.82 63.7596 16.8833 69.5449 20.7489C75.3302 24.6145 79.8393 30.1089 82.502 36.5372C85.1647 42.9655 85.8614 50.039 84.5039 56.8633C83.1465 63.6875 79.7959 69.956 74.8759 74.876C69.9559 79.796 63.6874 83.1466 56.8632 84.504C50.0389 85.8614 42.9654 85.1648 36.5371 82.5021C30.1088 79.8394 24.6145 75.3303 20.7488 69.5449C16.8832 63.7596 14.8199 56.9579 14.8199 50C14.8305 40.6729 18.5404 31.7309 25.1356 25.1357C31.7308 18.5404 40.6729 14.8306 49.9999 14.82V14.82ZM49.9999 80.18C55.969 80.18 61.804 78.41 66.767 75.0937C71.7301 71.7775 75.5983 67.064 77.8826 61.5494C80.1669 56.0347 80.7645 49.9665 79.6 44.1122C78.4355 38.2578 75.5611 32.8802 71.3404 28.6595C67.1197 24.4388 61.7421 21.5644 55.8877 20.3999C50.0334 19.2354 43.9652 19.833 38.4505 22.1173C32.9359 24.4016 28.2224 28.2698 24.9062 33.2329C21.59 38.1959 19.8199 44.0309 19.8199 50C19.8305 58.001 23.0136 65.6712 28.6711 71.3288C34.3287 76.9863 41.9989 80.1694 49.9999 80.18V80.18Z" fill="#231F20"/>
</svg>
