<svg width="44" height="44" viewBox="0 0 44 44" fill="none" xmlns="http://www.w3.org/2000/svg">
<g>
<path d="M34.2144 40.9815H9.78556C8.55554 40.9804 7.37617 40.4915 6.506 39.6222C5.63584 38.7529 5.14588 37.5739 5.14355 36.3439V18.7131H20.1256L22.8404 22.3915H38.8564V36.3439C38.854 37.5739 38.3641 38.7529 37.4939 39.6222C36.6237 40.4915 35.4444 40.9804 34.2144 40.9815ZM7.34356 20.9131V36.3439C7.34472 36.9908 7.60252 37.6108 8.06035 38.0678C8.51819 38.5249 9.13866 38.7815 9.78556 38.7815H34.2144C34.8613 38.7815 35.4817 38.5249 35.9396 38.0678C36.3974 37.6108 36.6552 36.9908 36.6564 36.3439V24.5915H21.7316L19.0168 20.9131H7.34356Z" fill="#455ED4"/>
<path d="M34.8133 12.6853H32.6133V23.4873H34.8133V12.6853Z" fill="#455ED4"/>
<path d="M9.2359 20.5216L9.1875 4.10962H26.2331V6.30962H11.3919L11.4359 20.5128L9.2359 20.5216Z" fill="#455ED4"/>
<path d="M34.8124 12.6852H26.2324V4.10962L34.8124 12.6852Z" fill="#455ED4"/>
</g>
</svg>
